ply
format ascii 1.0
comment Created by CloudCompare v2.11.0 (Anoia)
comment Created 10/07/2020 10:08
obj_info Generated by CloudCompare!
element vertex 1358
property float x
property float y
property float z
end_header
0.00408414 0.0366999 0.00677694 
-0.00447967 -0.0228346 0.00725512 
0.00753174 -0.0229094 -0.00517482 
-0.00872143 -0.0229396 0.00215055 
0.00220183 -0.0229699 -0.00919705 
-0.00801408 -0.0293285 -0.00421617 
-0.00411102 -0.029191 -0.00802137 
-0.0072851 -0.0270452 -0.005199 
-0.00877969 -0.0270887 -0.00215656 
-0.00184374 -0.0272767 -0.0090363 
0.00751673 -0.0334901 0.0074071 
-0.00629672 -0.0334479 -0.00652127 
-0.00209543 0.0293899 -0.0142262 
-0.00846291 0.0303973 -0.0127962 
0.00209426 -0.0121364 -0.00981433 
-0.00416093 0.0259897 -0.0128085 
-0.00979385 -0.0541571 0.0440883 
-0.00944832 -0.010104 -0.000520982 
0.00027285 -0.0100961 -0.0100231 
0.00835671 -0.0355126 0.00614388 
0.0129643 0.0298537 0.00018611 
0.0333716 -0.0349494 -0.0345467 
0.0341224 -0.0550579 -0.0149969 
-0.0061328 -0.0143531 0.00624606 
0.00672396 -0.0143092 -0.00643482 
0.0422927 -0.0376852 0.0435103 
-0.0157216 -0.0538335 -0.034731 
-0.0316725 -0.0459651 -0.0146641 
0.0286375 -0.0354752 0.0286444 
0.0418032 -0.035191 0.0423865 
0.0181518 -0.0357013 0.0176714 
-0.00776933 -0.0362691 -0.00805327 
0.00866451 -0.0359127 0.0088292 
0.0405313 -0.0352122 0.0400576 
0.0356159 -0.0353297 0.0367627 
-0.0394165 -0.03949 -0.0351647 
0.00443427 -0.0313072 0.00859182 
0.00929878 -0.0312941 0.00426255 
0.000668648 0.037978 0.00942442 
-0.00621542 -0.0100049 0.00650024 
0.00687265 -0.010165 -0.00668459 
-0.0312813 -0.0568943 -0.0149496 
-0.00195583 -0.0206534 0.00809227 
0.00871046 -0.0207011 -0.00210857 
0.00133862 -0.0187571 -0.00953358 
0.0379447 -0.0352512 0.0346488 
-0.052739 -0.0507683 0.00279816 
0.00947753 -0.0270271 0.00433771 
0.00443146 -0.0270839 0.00848932 
0.00262911 0.0343755 0.00864519 
-0.00789554 -0.0100343 0.00422413 
0.00441852 -0.0101142 -0.00847836 
-0.00919628 -0.0144463 1.04357e-05 
-0.00459913 -0.0167568 0.00722905 
0.00750783 -0.0164556 -0.00523259 
-0.0437332 -0.0473498 -0.0475381 
-0.00874155 -0.0165184 0.0020809 
-0.0116056 0.025133 -0.0105256 
-0.0422813 -0.0573427 0.00749986 
-0.00693282 0.0421128 0.00939126 
0.00863346 -0.0292011 0.0064753 
0.00666427 -0.0292356 0.00861274 
0.0253332 -0.0351679 -0.0356883 
0.000950725 0.0322431 0.00693586 
0.000137538 -0.0333953 0.00827515 
0.00883185 -0.0333927 -8.1142e-05 
0.00907328 -0.0228265 2.98909e-05 
0.000255766 -0.0227977 0.00861022 
0.00647723 -0.0205415 0.00847579 
0.00920412 -0.0207432 0.00642134 
0.00928584 -0.0249805 0.00222592 
0.00225023 -0.0249397 0.00868281 
0.00218698 -0.0185572 0.00840696 
0.00943199 -0.0185854 0.0021483 
-0.00433379 -0.0559272 -0.0488204 
-0.00651046 -0.0122445 -0.00650312 
0.00877229 -0.0122192 0.007921 
-0.00625819 0.0259586 0.00622072 
-0.00418532 -0.0163941 -0.00854029 
-0.00823049 -0.0164763 -0.00432728 
-0.0168864 -0.0563635 -0.0353172 
0.00657527 -0.0250322 0.00839211 
0.00890882 -0.0249353 0.00646279 
0.0577121 -0.0344805 -6.33128e-05 
0.00438979 0.0260144 0.00394807 
-0.0380259 -0.0373285 0.0257299 
-0.0090542 -0.0334357 -0.00209237 
-0.00211187 -0.033409 -0.00883269 
-0.00273844 -0.0559838 -0.0325054 
0.000157439 -0.0164292 -0.00960276 
0.0345591 -0.0353932 0.0421905 
-0.0468949 -0.0465183 0.00557762 
0.00891751 -0.0555564 -0.0486188 
0.0128206 0.0260454 0.0021465 
-0.00204845 -0.0163902 0.0084663 
0.00880225 -0.0164296 -0.00211532 
-0.0192426 -0.0565638 -0.0137377 
0.000133784 0.032376 0.0101103 
-0.00901351 -0.0206436 -3.3762e-05 
-0.00378663 -0.0142009 0.00778147 
0.00867586 0.0280689 0.00406344 
0.000419668 0.0281189 0.00686109 
0.0278466 -0.0354649 0.0234283 
4.50608e-05 0.026008 -0.0146985 
-0.0117271 0.028373 0.00362486 
0.00348636 0.0273704 -0.0137032 
-0.00120323 -0.0143159 -0.00956456 
-0.00633273 -0.0228433 -0.00627909 
0.00802742 -0.022756 0.00782871 
0.00985963 -0.010034 0.00639806 
-0.00547575 -0.0559746 -0.0463468 
0.0106082 -0.0535391 0.0368116 
-0.00463739 0.0301762 0.0072347 
0.0223051 -0.0553861 -0.0155593 
0.00288041 -0.0359274 -0.0149145 
-0.00802916 -0.0560852 -0.0400815 
-0.00414223 -0.0207015 -0.00835372 
-0.00829942 -0.0207114 -0.00425625 
0.0318291 -0.0354694 0.0421323 
0.0238853 -0.0356262 0.03148 
-0.00379555 0.0324283 0.00986881 
0.0341404 -0.0352872 0.023254 
-0.00320434 0.0289412 0.00956349 
0.000183764 -0.0122747 0.00889467 
0.00945687 -0.0123381 1.65168e-05 
-0.0211792 -0.0364712 -0.0360869 
0.0445486 -0.0549212 0.0100973 
0.00990902 -0.0143122 0.00424222 
-0.0040421 -0.0249395 -0.00812574 
-0.00973076 0.0284969 0.0055539 
-0.0359592 -0.0369516 -0.0255644 
0.0347328 -0.0377698 0.0229689 
0.0463448 -0.0345332 -0.0429032 
0.0142324 0.0277793 -0.00131123 
-0.0412724 -0.057229 -0.0062312 
-0.0112885 0.0189593 0.000825175 
0.000272621 0.017475 -0.0128099 
-0.00863705 0.00677805 -0.0066123 
-0.00639633 0.00678535 -0.00862249 
-0.00206972 0.0196856 0.00914823 
-0.0389623 -0.0371201 -0.0120176 
-0.00995003 -0.0361457 -0.0377462 
-0.00403423 0.0174765 0.00864308 
-0.00335909 -0.00172856 -0.00961895 
-0.00221847 -0.0358813 -0.045352 
-0.00576078 0.0238926 0.00782786 
0.00875664 0.0215089 -0.00853929 
-0.0082215 0.0217908 0.00611069 
-0.0103573 0.0153656 0.00211995 
0.00205151 0.0133432 -0.0118412 
-0.00951091 0.0008468 -0.0035281 
0.0060116 0.0112879 -0.00994584 
0.00235768 -0.0362966 0.0420932 
0.00222289 0.0196125 -0.013123 
0.00240868 0.0224936 -0.0138224 
-0.00718398 0.00399313 -0.00729765 
0.00291027 0.000492412 0.00730095 
0.0019777 -0.00180339 0.00773339 
0.00653725 0.00496209 0.00717175 
0.00657218 0.0210764 -0.0105027 
0.0102011 -0.00370627 0.0021784 
-0.008175 0.0112702 0.00625134 
-0.00717321 0.00917265 0.00734507 
-0.00466851 0.000546499 -0.00907379 
0.0101873 -0.0385455 0.0369048 
0.0362969 -0.0552613 0.0275333 
0.00987589 -0.00798102 0.00425814 
-0.0376716 -0.0569514 -0.034613 
-0.0117196 0.0241726 0.00331596 
0.0129408 0.0217136 -0.00217703 
0.0127102 0.0238316 -0.00371397 
-0.0101649 0.0217053 0.00413225 
-0.00733653 -0.02709 0.00535158 
0.00571017 -0.0273684 -0.00755779 
-0.0102465 0.0322443 0.00456503 
-0.00888781 -0.0228776 -0.00214516 
-0.00200166 -0.0228477 -0.00915273 
-0.00651678 -0.0438213 -0.0447568 
0.00256008 -0.0363088 0.0449791 
0.00669339 0.00886627 -0.00880976 
0.0103188 -0.0360382 0.0364834 
-0.0121888 0.0239262 0.000113674 
2.28595e-05 0.023723 -0.0125836 
0.00264889 0.00693777 0.00713583 
0.00972552 -0.00723533 0.00107512 
0.00261434 0.0111977 0.00702885 
-0.0130252 0.0217751 -0.00207734 
-0.0125001 0.0234355 -0.0042332 
-0.00207314 0.0216968 -0.013207 
-0.0341766 -0.0573037 0.0378329 
0.0425545 -0.03486 -0.00746404 
0.00648881 0.0153256 0.00570591 
-0.00934466 0.0129559 -0.00722471 
-0.0105458 0.0176202 -0.00788325 
-0.00778803 0.000591908 0.00631603 
-0.00833341 0.00258961 0.00421553 
-0.00896856 0.00471045 0.00227627 
-0.00775163 0.0177769 -0.00990881 
-0.00839233 0.0153064 -0.00857914 
-0.00709393 0.0132266 -0.00932205 
0.00488887 0.00259739 -0.00922119 
0.00624517 0.000593513 -0.00803269 
0.0449632 -0.0347993 -0.00635089 
-0.00555399 0.0183617 -0.0117139 
0.0281368 -0.0550947 -0.036099 
0.0603938 -0.0476954 0.000525311 
-0.00780621 0.0092209 -0.00783675 
0.00944543 -0.00165602 -0.00249136 
0.00657548 0.00898727 0.00687545 
-0.00183813 -0.00179619 0.00920899 
-0.00215565 -0.056566 0.0637663 
0.0528921 -0.0460089 -0.0029055 
-0.0380962 -0.0372227 0.00839387 
-0.0361842 -0.0371802 0.0101859 
-0.0118856 0.0175886 -0.00421518 
-0.0071728 0.00448332 0.00732642 
-0.0105996 0.0243497 -0.00828341 
-0.00689533 0.0218644 -0.0104656 
-0.0119556 0.0220243 -0.00823976 
-0.00624303 0.0239003 -0.0126105 
-0.0397795 -0.0573996 0.0279602 
0.010629 -0.0355791 -0.0359472 
-0.0300459 -0.0571861 0.0375596 
0.00249976 0.0154889 0.00698987 
-0.00886488 0.000558068 0.00220178 
0.00647517 0.00472315 -0.00831934 
-0.0113566 0.015146 -0.00205805 
-0.0108465 0.013261 -0.00427227 
-0.0040733 0.0134391 -0.0110631 
-0.00784657 -0.00592254 0.00430359 
0.00445089 -0.00589015 -0.00871822 
-0.00518779 -0.0566053 0.0563976 
0.00240479 0.019633 0.00698335 
0.0414195 -0.0510082 -0.0299986 
0.0422761 -0.0547116 -0.0338658 
0.0065572 0.0215861 0.00541688 
-0.0102567 0.0219877 -0.0101003 
0.0021848 0.000514394 -0.0106406 
-0.0419441 -0.0570092 -0.0446028 
-0.0021813 0.0152641 -0.012178 
-0.00553531 0.0090014 -0.00966469 
-0.00989091 0.00904743 -0.00578769 
0.0417686 -0.0547465 -0.0305501 
-0.00204793 0.00878551 -0.0112832 
-0.00982377 0.00689549 -4.68063e-05 
-0.0102877 0.00907056 -0.00216868 
0.000168175 0.00699966 -0.0115264 
0.00220961 0.00478481 -0.0109839 
-0.00167934 0.0112769 -0.011957 
0.0614928 -0.0543883 0.000904294 
-0.00136343 -0.0364002 0.0419618 
0.00431425 0.0175247 -0.0121345 
0.0119485 0.0179477 -0.00371066 
-0.0629061 -0.0578556 -0.00312028 
0.00655606 -0.0361945 0.0446341 
-0.00706063 0.0155225 0.00686503 
-0.00831073 0.000515937 -0.0060008 
-0.0118711 0.0219163 0.00170793 
-0.00202126 0.0131997 0.00907215 
-0.00929408 -0.0015966 -0.00413393 
0.00885653 0.0088627 -0.00646816 
0.00795286 0.0112068 -0.0079786 
-0.0560746 -0.0551471 -0.00564561 
-0.00515425 -0.0360258 -0.0353639 
-0.0237637 -0.0505977 -0.0383816 
0.0104923 0.000476053 0.00213619 
0.00985745 0.00474721 0.00575253 
0.00864984 -0.00801189 0.00778789 
0.01132 0.0131634 -0.00212262 
0.0110794 0.0153222 -0.00431945 
-0.00654535 -0.00803142 -0.00666597 
0.0471737 -0.054522 -0.0422583 
-0.0261611 -0.0565972 -0.0396034 
0.0320012 -0.0554707 0.0418282 
-0.0093889 -0.00385955 -0.00248554 
0.00989223 0.011092 -0.00554968 
-0.0563495 -0.0576566 -0.00553414 
0.0340377 -0.0552977 0.0231909 
-0.00935478 0.0174381 0.00515888 
0.00471253 0.0150688 -0.0114106 
0.0119911 0.0158028 -0.00166941 
0.00819067 0.00245524 0.00747639 
0.0616431 -0.0544022 0.00380395 
0.0396627 -0.0522403 -0.0408917 
-0.00196619 -0.00587637 -0.00979729 
0.012085 0.0215648 -0.00590391 
-0.00944905 -0.00586554 -0.000626707 
0.0113794 0.0110796 3.66858e-05 
0.0100126 0.00715931 -0.00391272 
-0.0574389 -0.0577222 9.91252e-05 
0.00569334 0.0316852 0.00571535 
-0.00785403 -0.0143485 0.00406834 
0.00435032 -0.0143816 -0.00848832 
-0.00877977 -0.0566455 0.0466375 
-0.0416085 -0.0370147 -0.0409145 
0.00580984 -0.0164085 -0.00759167 
0.0451174 -0.0523003 -0.00661533 
-0.00887392 -0.0122211 0.00203865 
0.0426003 -0.0548644 -0.00782654 
0.00623573 -0.0560332 0.0159559 
0.00430449 0.0304007 0.00398129 
0.00201313 0.04105 0.0121198 
0.00426437 0.0280674 0.00603741 
0.0363892 -0.0549562 -0.0211138 
0.0530631 -0.0521001 -0.00294337 
-0.0074199 -0.0035003 0.00565951 
0.005975 -0.00375697 -0.0078543 
-0.00880622 -0.00785342 0.00217987 
0.000175361 -0.00366009 -0.0106366 
-0.0103351 -0.0386635 -0.0367758 
-0.0443002 -0.0373292 -0.00248486 
0.00437288 -0.00590336 0.00755059 
-0.0642876 -0.0553965 -0.00262198 
0.0468948 -0.0348193 0.00559213 
0.00432375 -0.0362707 0.0468101 
-0.00194635 0.000695107 -0.0103475 
-0.00954278 0.0115999 0.00372433 
-0.00786325 -0.0058235 -0.00562529 
-0.00561043 -0.00572815 -0.00794462 
-0.0108442 -0.0366708 0.0426774 
0.00684315 0.0240153 0.00293764 
0.00238235 0.0239723 0.00654742 
-0.0106881 0.0152885 -0.00653033 
-0.00625964 0.0153351 -0.0104102 
-0.0057974 -0.00153612 0.00783644 
-0.0119293 0.0196028 -0.00628142 
0.00793051 -0.00148903 -0.0059026 
-0.00851427 0.0259453 -0.0123174 
0.0419301 -0.034725 -0.0319915 
-0.00630319 0.029716 -0.0140075 
-0.00827301 0.0346215 0.00627395 
0.00975253 -0.00390458 0.00555285 
0.00953131 -0.00161566 0.00658265 
0.00432264 0.00267936 0.00696182 
0.00614202 0.00071719 0.00734533 
0.00660335 -0.00176415 0.0076126 
-0.0425032 -0.0575266 0.0360766 
-0.00497849 0.00450582 -0.0093393 
0.00559269 0.0411613 0.00719301 
-0.00694794 0.0195851 0.00717202 
0.00160113 -0.0564151 0.0564586 
-0.00193575 0.0240415 0.0069278 
-0.00970259 0.0046688 -0.00423628 
0.00438981 0.00894923 -0.0104182 
0.0119278 0.0156752 0.00153444 
0.0105041 0.0111597 0.00422666 
0.0402527 -0.0527621 0.0456894 
0.00746395 -0.0530729 -0.0523622 
0.00591412 -0.00794426 -0.007656 
-0.0225427 -0.0544572 0.0347871 
-0.00884497 -0.00373272 0.00213242 
0.000189586 0.0175606 0.00821314 
-0.00950791 -0.00152636 -0.000271366 
-0.0103172 0.0111233 4.86622e-05 
-0.00412414 0.00690132 -0.0101467 
0.00119853 0.0103313 -0.0116108 
0.0419509 -0.037226 -0.0319001 
-0.00728373 -0.0237756 0.00521872 
0.0105717 -0.0492886 -0.0436088 
0.00999987 0.0179639 -0.00766761 
-0.05761 -0.0462056 -0.00511733 
-0.00621066 -0.0359986 -0.0445165 
-0.00209297 0.0247634 0.00961078 
-0.00666586 -0.0385111 -0.0447238 
-0.0331036 -0.0571959 0.0253423 
-0.0089536 0.00898686 0.00429892 
0.0125242 0.0197275 0.000103914 
-0.0273024 -0.0570994 0.0360105 
-0.0343488 -0.0371054 0.00644944 
0.00976681 0.00870681 0.00550004 
0.0115163 0.0132503 0.00212323 
0.0111981 0.00895752 0.00214656 
0.0101938 0.00477884 -0.00198703 
-0.0387194 -0.0372166 0.00460016 
0.0105036 0.00263276 9.71848e-05 
-0.00100142 -0.0359448 -0.0296579 
0.057036 -0.054542 0.00550009 
0.00804559 -0.0361326 0.0414076 
-0.00200443 0.00900002 0.00906976 
-0.00422782 0.0112264 0.00897689 
-0.00596476 0.0131223 0.00811811 
-0.00671325 -0.00172456 -0.00695566 
0.00797464 0.0176923 -0.0100148 
0.00851942 0.0153159 -0.00854476 
0.000204569 0.00688995 0.00840565 
8.64801e-05 0.000562407 0.00856661 
0.0044317 0.0131955 0.00615319 
0.00224218 -0.00584012 -0.0101785 
0.00229459 -0.010177 0.00807661 
0.009654 -0.00993479 0.00156255 
0.0199676 -0.038269 0.0366027 
0.0115513 0.0260729 -0.00227227 
0.0447389 -0.0444422 0.00998421 
0.00649385 -0.0101417 0.00795003 
0.0240381 -0.035222 -0.0328469 
0.0132249 0.0238626 0.000137864 
0.0106668 0.0153158 0.00410842 
0.00653339 -0.055583 -0.0550969 
0.00834271 0.00476665 -0.00638771 
-0.00410473 0.000451096 0.0089403 
0.00882271 0.0111182 0.00630663 
0.00886621 0.000542011 -0.0042753 
0.00342613 -0.00325169 -0.00956632 
0.0124246 0.0217696 0.00213506 
0.00836336 -0.0556409 -0.0375334 
-0.00380176 -0.0362707 0.0101258 
0.0107635 -0.0357719 -0.00433206 
0.0427764 -0.0346761 -0.0360408 
0.0296721 -0.0351255 -0.0229262 
-0.00588801 -0.0560083 -0.0427943 
0.0437855 -0.0371498 -0.0358741 
-0.000477916 0.0280855 0.00964582 
0.00814653 -0.0120441 -0.00425246 
-0.00909348 -0.0249327 -5.56259e-05 
0.000237297 -0.0248812 -0.00925847 
0.010755 0.0241785 0.00201966 
0.0269223 -0.0376208 -0.0362631 
-0.0346009 -0.0372304 0.0254166 
-0.0364777 -0.0546957 0.0102299 
-0.0105134 0.0280464 -0.0126455 
0.000569034 -0.0508762 -0.059705 
-0.00415 0.00463652 0.00896279 
-0.00805534 -0.00153972 0.00417029 
-0.0420195 -0.0545174 -0.0434745 
0.0385376 -0.034967 -0.00838602 
-0.0096546 0.00262347 -0.000154322 
0.000249395 0.00257697 -0.0113159 
-0.00668416 -0.00582481 0.00657905 
0.00786229 -0.00588798 -0.00572226 
-0.00210283 -0.0080588 0.00910636 
0.00919842 -0.00787567 -0.00206267 
0.0318691 -0.054978 -0.0380122 
-0.00417776 -0.00376914 0.00871138 
0.00860502 -0.00370904 -0.00422287 
-0.0408714 -0.0398022 0.00848712 
0.0120593 -0.0355235 -0.0384329 
0.00892419 0.0197606 0.00485835 
0.0029982 -0.0556226 -0.0647026 
0.000188882 -0.00381729 0.00847776 
0.0101681 -0.00166488 -2.3817e-05 
-0.00960323 0.00920582 0.00178098 
-0.0020329 0.00472236 -0.0106966 
-0.00643864 -0.056542 0.0405556 
-0.0255803 -0.056683 -0.02318 
0.0442255 -0.052662 0.0475254 
-0.00795107 0.00690867 0.00639396 
-0.00405143 -0.010068 0.0082455 
-0.0352857 -0.0371982 0.0171346 
-0.00609817 -0.018582 0.00633239 
0.00690115 -0.0186386 -0.00638568 
0.0549067 -0.0345487 -0.00175568 
-0.0374762 -0.0372892 0.0218796 
-0.0376265 -0.0491762 0.00980536 
0.0382087 -0.0550045 -0.00513523 
-0.00773848 0.0324656 0.00767811 
0.00440867 -0.0142671 0.00798375 
0.0549348 -0.0345728 0.00224642 
0.0217984 -0.0357222 0.0374968 
-0.0178914 -0.0567533 0.0228346 
0.0425905 -0.0349721 0.0107359 
-0.00875416 -0.00797691 -0.00426557 
0.0107412 0.00890137 -0.00211055 
0.011038 0.00690217 0.000126149 
0.0109092 0.00474297 0.00206397 
0.0102468 0.00267173 0.00419324 
0.00851773 -0.00376375 0.00778237 
-0.00431032 -0.00798962 -0.00879173 
-0.0400696 -0.0396548 -0.0115997 
-0.002241 -0.0359391 -0.0361612 
-0.0358101 -0.0569135 -0.0323012 
0.00819558 -0.0186223 0.00816373 
-0.00630113 -0.0185463 -0.00647781 
0.0618679 -0.0343868 0.00363887 
0.056615 -0.0370063 -0.00101417 
0.0228159 -0.0377454 -0.0347512 
0.00190784 -0.0363876 0.0547028 
0.00967434 -0.0146047 0.00143879 
0.000340275 -0.0564115 0.050176 
0.0323825 -0.0349539 -0.0382835 
0.0437093 -0.0349264 0.0084365 
-0.00783464 -0.0185341 0.00403216 
0.00437453 -0.0186148 -0.00857802 
0.036168 -0.034954 -0.021172 
-0.0256214 -0.0370432 0.0358484 
-0.0228802 -0.0369544 0.0339407 
-0.00841745 -0.0561781 -0.0269078 
-0.0398332 -0.0369949 -0.0360907 
-0.0290207 -0.0368079 -0.0173385 
-0.00905777 -0.0121762 -0.00211746 
-0.0466217 -0.0573833 -0.00555632 
-0.00238302 -0.0101642 -0.00933965 
0.000117545 -0.0562419 0.0219071 
0.00671176 -0.0249797 -0.00640167 
0.0361802 -0.0349294 -0.0250768 
0.00570349 -0.020961 -0.00764972 
0.0107233 0.0281588 0.00178948 
-0.00882038 -0.0271482 0.00207402 
0.00224572 -0.0271567 -0.00907375 
-0.00476935 -0.0270401 0.00721954 
0.00747988 -0.027109 -0.00496076 
0.0132475 -0.0555857 -0.0243479 
-0.00197757 -0.0249358 0.00812714 
0.00865496 -0.024972 -0.0020879 
0.0503847 -0.0546916 -0.000479184 
0.00449328 -0.0250449 -0.00841959 
-0.00885776 -0.0185906 -0.00215194 
-0.00218866 -0.0184458 -0.00930646 
-0.0462845 -0.0573577 -0.00816103 
-0.00425647 -0.012226 -0.00857363 
-0.00554678 -0.0101344 -0.00769542 
-0.00742496 -0.0296733 0.00539193 
-0.0434362 -0.0572762 -0.00840069 
0.00433858 -0.0557675 -0.0353348 
0.00561559 -0.0314184 -0.00756734 
-0.00623507 -0.0363437 0.0108779 
-0.00880411 -0.0312943 0.0020812 
0.00228696 -0.0315727 -0.00897736 
-0.00472617 -0.0311938 0.00726435 
0.00738149 -0.0310852 -0.00492067 
-0.00204035 -0.0291244 0.00832506 
0.00864844 -0.0292069 -0.00198459 
0.00447335 0.0430391 0.0107419 
-0.0476025 -0.0402117 0.0439512 
-0.0195646 -0.0367812 0.0210546 
-0.0269243 -0.0370483 0.03079 
0.00786425 -0.033433 -0.00379909 
-0.0062725 0.0387007 0.0100266 
-0.0293573 -0.0569675 0.00550861 
-0.00624499 -0.0334311 0.006193 
-0.00807249 -0.0363787 0.00821198 
0.00785823 -0.0358304 -0.00803799 
-0.0225223 -0.0368867 0.0246771 
-0.00223482 -0.0450507 -0.0539555 
-0.00777274 -0.0561053 -0.0356951 
0.0381463 -0.0550918 0.00862634 
0.0264342 -0.0356054 0.0396392 
-0.0015148 -0.0558617 -0.0466159 
0.0558911 -0.0345683 0.00583927 
0.0167219 -0.0354352 -0.0315931 
0.00960027 -0.0145515 0.00702983 
-0.00984287 0.0388606 0.00823506 
-0.0168241 -0.0365734 -5.21359e-07 
0.0157923 -0.0555586 -0.017232 
0.00966407 -0.0170804 0.00424585 
0.00656099 -0.0164616 0.00833983 
0.000154794 -0.0269086 0.00872146 
0.00901502 -0.027122 -3.8275e-05 
-0.00413666 0.0366633 0.00884813 
0.00447912 -0.0227299 0.0083887 
0.00954822 -0.0228102 0.0038993 
0.025641 -0.0356127 0.0372259 
0.0570587 -0.0545001 -0.00114485 
-0.0019284 0.00262945 0.00920828 
0.00011267 0.0112247 0.00838805 
0.0382991 -0.0548741 -0.0256941 
0.0387027 -0.052372 -0.0240453 
-0.00306682 -0.0358597 -0.0526563 
0.0402025 -0.0347855 -0.0300624 
-0.0113058 -0.054174 0.03998 
0.00394894 -0.0356142 -0.06047 
0.0398719 -0.0352126 0.0371389 
0.00222318 -0.0292896 0.00845409 
0.00922122 -0.0292805 0.00218814 
-0.06137 -0.0378005 -0.00376813 
-0.0380712 -0.0374212 0.0404319 
-0.00816234 -0.0335002 0.00422913 
-0.00915245 -0.029207 2.42848e-05 
6.59399e-05 -0.0293007 -0.00927057 
-0.00807954 -0.0535809 -0.040843 
0.0337595 -0.0552488 0.0140694 
-0.00416061 0.0260233 0.00890165 
0.00432448 -0.0355715 -0.00818417 
-0.00891779 -0.035807 0.002182 
-0.00460342 -0.0357884 0.00705303 
0.00735942 -0.0356272 -0.00505514 
0.0333787 -0.0434093 0.0188257 
0.044682 -0.0346107 -0.0379525 
-0.00200341 -0.0357764 0.00808429 
0.00828943 -0.0355785 -0.00209579 
-0.0347604 -0.0396782 0.0161331 
-0.0184527 -0.0567444 0.0188664 
0.00428718 0.0174899 0.00604567 
0.0187094 -0.0378701 -0.0332394 
0.00229923 -0.0356753 0.00829615 
0.00895696 -0.0355166 0.00210199 
-0.00629712 -0.0292556 -0.00628103 
-0.0441041 -0.0373777 0.0061882 
0.000184111 -0.0357184 -0.00915496 
0.0371717 -0.0525005 -0.0102873 
0.0342651 -0.0550829 -0.0103324 
0.0357705 -0.0348999 -0.0316746 
-0.0245146 -0.0415515 -0.0385547 
-0.00991413 -0.0536571 -0.036869 
-0.057861 -0.0377153 -0.00162761 
0.0364472 -0.0374546 -0.0199781 
-0.0357557 -0.0372279 0.019801 
-0.0260734 -0.0366859 -0.0236569 
0.0286242 -0.055405 0.0160128 
-0.00505467 -0.0359956 -0.00736998 
-0.0333686 -0.0394223 -0.0187316 
-0.00815291 -0.0358263 -0.00424402 
-0.00741706 -0.0315061 -0.00535096 
0.0386201 -0.0352949 0.0447262 
-0.0379284 -0.036903 -0.042266 
0.0254478 -0.0355185 0.0212104 
0.0238524 -0.0554798 0.00649626 
0.0407807 -0.0377022 0.0394021 
-0.0335372 -0.0570648 0.00228826 
-0.0369221 -0.0373574 0.035366 
-0.0448476 -0.0483846 0.0384355 
0.00684425 -0.0356952 -0.034371 
0.0231533 -0.0552482 -0.0339049 
0.0581341 -0.0544874 0.00166342 
0.000482814 -0.0527088 0.0586764 
0.00833269 0.0173261 0.0055616 
-0.0393723 -0.0574163 0.0324804 
0.022875 -0.0555669 0.0160967 
-0.0463043 -0.0574293 0.00327148 
-0.0485526 -0.0485879 -0.00844094 
-0.0101876 0.0260444 0.00218173 
-0.00844351 0.0260744 0.00414364 
0.0105455 -0.0556148 -0.0318789 
-0.0139027 -0.0565921 0.0149249 
0.0604542 -0.0369308 0.00416961 
-0.00827428 0.0303052 0.00452668 
-0.0306555 -0.0371422 0.0290367 
0.00992032 -0.0556638 -0.0268219 
-0.0352831 -0.0398376 0.0394157 
0.036364 -0.0352518 0.0276074 
0.0289334 -0.0355214 0.0374095 
0.00693899 -0.0536915 0.0447596 
0.00602301 -0.0562314 0.0468802 
0.000737805 -0.0559414 -0.0236314 
-0.0521364 -0.037556 -0.00139239 
0.042451 -0.0549698 0.0084428 
0.0438046 -0.0376684 0.0476186 
0.043056 -0.0351853 0.0471227 
-0.0221921 -0.0566852 -0.0075342 
-0.0409285 -0.0395068 -0.039273 
-0.0422183 -0.0374861 0.0321516 
-0.0128494 -0.0562823 -0.0301528 
-0.0301333 -0.0568915 -0.0102158 
0.00677432 0.0301342 0.00271226 
0.0362145 -0.0352876 0.0326937 
-0.00142681 -0.0558064 -0.0551174 
-0.0338673 -0.0569155 -0.0232182 
4.44695e-05 0.021689 0.0083812 
0.00865091 0.025955 0.00236132 
-0.0041602 0.0217781 0.00860092 
-0.046567 -0.037356 -0.00840897 
-0.0255875 -0.0365846 -0.0377512 
-0.00603756 0.0281042 0.00812044 
0.0331292 -0.0354185 0.0398077 
0.00426944 0.0386866 0.00853657 
0.0386989 -0.0348455 -0.0272083 
0.0469799 -0.0547541 -0.00580256 
-0.00599331 -0.0565669 0.0465857 
-0.0317281 -0.0367319 -0.0417924 
-0.00201296 0.0345237 0.00861717 
0.00851503 -0.0561192 0.040081 
0.00174196 -0.0562956 0.0378696 
-0.00609402 0.034489 0.00847314 
-0.0288085 -0.0570092 0.0146977 
-0.0393896 -0.0399623 0.0409276 
-0.00624494 -0.0535047 -0.044817 
-0.0019967 0.0368206 0.0108369 
-0.0402904 -0.0571752 -0.0104348 
0.0341262 -0.0380273 -0.0389126 
-0.0345867 -0.0368884 -0.0295249 
-0.00197354 0.0405976 0.0110946 
-0.0343158 -0.0368398 -0.0361274 
-0.00839196 0.0365178 0.00853219 
0.00543525 -0.0562154 0.0416431 
0.018039 -0.035659 0.0103613 
-0.0096158 0.0421328 0.00922906 
-0.0133902 -0.0364697 -0.0011652 
-0.00419142 -0.0361563 -0.0100343 
0.028924 -0.0386685 0.0407298 
0.00202467 0.0302839 0.00864522 
-0.0521921 -0.0375218 -0.00714701 
0.0510133 -0.0347076 0.00621903 
0.0522413 -0.0371802 0.00719325 
-0.00940009 -0.0565335 0.0258268 
-0.0164488 -0.0567675 0.0316289 
-0.0339163 -0.0571561 0.0152597 
-0.0375345 -0.0369692 -0.0298448 
0.0605879 -0.0369062 0.000821813 
-0.00567324 -0.036613 0.0567278 
-0.0420277 -0.0370042 -0.0444956 
-0.0336431 -0.0369257 -0.0192711 
0.0103767 0.030108 0.00350822 
-0.0318567 -0.0394055 -0.0146233 
-0.0205596 -0.0518959 0.0340467 
-0.036174 -0.054748 0.0200139 
0.0485239 -0.0347095 -0.00470538 
-0.00971306 -0.0366582 0.0457509 
0.0372458 -0.0548523 -0.0339644 
-0.0319262 -0.0368382 -0.0255915 
-0.0337645 -0.036905 -0.0231551 
0.019796 -0.0357502 0.0329554 
-0.0530732 -0.0376034 0.00199368 
0.0446588 -0.0546161 -0.0384728 
-5.80065e-05 -0.0364245 0.0517578 
-0.00955959 -0.0362273 -0.0228597 
0.0166291 -0.0358021 0.0270024 
0.0105778 -0.0360028 0.0319677 
-0.0359071 -0.0572732 0.0251126 
-0.0318326 -0.0369023 -0.0148509 
-0.0386702 -0.0526051 -0.0342192 
-0.0144748 -0.0363159 -0.0307901 
-0.0421686 -0.0492071 -0.0434415 
0.0412016 -0.0526958 0.0393088 
0.0427136 -0.0526789 0.0434171 
-0.0286471 -0.0368818 -0.00377369 
-0.0162332 -0.0364116 -0.023353 
-0.0329477 -0.0544159 -0.0188248 
-0.0192269 -0.0365249 -0.0186374 
0.0315445 -0.0353088 0.015011 
-0.0168369 -0.0363623 -0.0339962 
0.0423008 -0.0551984 0.0445314 
-0.0395988 -0.05699 -0.0371031 
0.0196025 -0.0429671 0.0363441 
-0.0205912 -0.036715 0.00576876 
-0.00685469 -0.0364426 0.0239934 
-0.0294117 -0.0370202 0.015036 
0.01711 -0.0558403 0.034032 
0.0477529 -0.0476178 -0.0438882 
-0.0213608 -0.0367706 0.0112498 
-0.0593404 -0.0577499 -0.00401806 
-0.023328 -0.0565286 -0.0378492 
-0.0343394 -0.0546718 0.0160399 
-0.021542 -0.0368044 0.0158623 
0.0192675 -0.0553606 -0.0333729 
-0.000846911 -0.0363129 0.0302511 
0.0209265 -0.0354395 -0.0119168 
-0.00992531 -0.0364945 0.0184726 
-0.0287995 -0.0369205 0.00176782 
0.0437692 -0.0521156 -0.0424035 
-0.0406752 -0.0490677 0.0414382 
-0.0121697 -0.0387397 -0.0328018 
0.0418816 -0.0551879 0.0409503 
0.0387203 -0.0552991 0.0445704 
-0.0360665 -0.0568469 -0.044181 
-0.003511 -0.0561189 -0.0142664 
0.0263322 -0.0353762 0.00232225 
0.0129699 -0.0358592 0.0196624 
0.00424323 -0.0361695 0.0301653 
0.0113619 -0.0358327 0.00813602 
-0.00597712 -0.0565931 0.0508648 
0.00736649 -0.035981 0.0139527 
0.0272531 -0.0552141 -0.0208854 
0.0275993 -0.0352589 -0.0108252 
-0.0460717 -0.0576694 0.042939 
0.00592863 -0.0358203 -0.0183756 
-0.014504 -0.0366307 0.0197051 
0.00877358 -0.0536153 0.0407856 
0.0382104 -0.034777 -0.0404291 
0.0475424 -0.040121 -0.0438416 
-0.0143298 -0.0542078 0.0317634 
-0.0507402 -0.0574951 -0.00618322 
0.0105736 -0.0356809 -0.0198329 
-0.004501 -0.0364478 0.0354549 
-0.0443753 -0.0576061 0.0404197 
0.0441808 -0.0546463 -0.0357754 
-0.00872271 -0.0365435 0.031786 
-0.00288488 -0.0360512 -0.0210373 
0.019746 -0.0556698 0.0185147 
-0.0107057 -0.0362111 -0.0306407 
0.0325526 -0.0553779 0.0293897 
0.0317089 -0.0378036 0.0147523 
0.0358331 -0.0553214 0.0351208 
-0.0405076 -0.0545005 -0.0393662 
-0.0248001 -0.0367215 -0.0121871 
-0.0336169 -0.0536592 -0.042989 
-0.0075438 -0.0361362 -0.0284113 
-0.0344597 -0.0544329 -0.0229331 
-0.0288665 -0.0368615 -0.00802719 
-0.0376333 -0.0569055 -0.0418192 
-0.0337555 -0.0369819 -0.0107359 
-0.00609357 -0.0361594 -0.0181272 
-0.0191999 -0.0365948 -0.00727202 
0.0321298 -0.0527972 0.0146591 
0.0398318 -0.0377685 0.0457826 
-0.0262853 -0.0367169 -0.0196358 
0.00815109 -0.0360045 0.0212778 
-0.0287943 -0.0369468 0.00601806 
0.0402418 -0.0547296 -0.0401591 
0.0285155 -0.0551379 -0.0274326 
-0.0249385 -0.0368579 0.0091303 
-0.0327991 -0.0473869 -0.0424911 
0.0455473 -0.0508367 -0.0389401 
-0.0260333 -0.0566379 -0.0324886 
0.0428447 -0.0546448 -0.0420529 
-0.0353979 -0.0569431 -0.0256887 
-0.0405349 -0.0540656 0.0414071 
-0.037323 -0.0371145 -0.00551947 
-0.0082419 -0.0360834 -0.0400452 
-0.0046675 -0.056409 0.0271621 
-0.00132801 -0.0357875 -0.0564228 
-0.00237589 -0.0562522 0.0123032 
-0.0439866 -0.0373498 0.00224416 
0.00114863 -0.0561819 0.0168966 
0.00119462 -0.0557256 -0.056278 
0.0291999 -0.0351814 -0.0160683 
-0.012872 -0.0366247 0.0260982 
-0.0332408 -0.0371132 0.0127051 
0.0563478 -0.0370555 0.00568143 
-0.031556 -0.0567332 -0.0420965 
0.0320237 -0.0550054 -0.0329054 
0.0146029 -0.0379948 -0.0317276 
0.0258606 -0.055618 0.037787 
0.00500506 -0.0558191 -0.024036 
0.0403428 -0.0525478 0.0116355 
-0.00464347 -0.0563584 0.0191399 
-0.0471725 -0.0376975 0.0437826 
-0.0423055 -0.0375295 0.0387366 
0.0144756 -0.0554943 -0.0335166 
-0.0446323 -0.0376204 0.0428474 
0.0298951 -0.0551563 -0.0182543 
0.0150238 -0.0529884 -0.0318208 
-0.0378519 -0.0413473 -0.0310681 
-0.0319717 -0.037204 0.0330406 
0.0139876 -0.0555386 -0.0285858 
0.0127553 -0.0556267 -0.0199904 
-0.0342859 -0.0568095 -0.0421547 
-0.0167881 -0.0367695 0.0317085 
-0.00242255 -0.0473567 0.0646714 
0.02832 -0.0353695 0.0102109 
0.0315387 -0.0352624 0.00752691 
0.0123988 -0.0359243 0.0275552 
-0.039228 -0.0462058 -0.0352065 
-0.0563419 -0.0551963 0.00104998 
-0.0347378 -0.0373122 0.0379572 
-0.0395506 -0.0374029 0.0308056 
0.0319644 -0.0351245 -0.0127268 
-0.0124002 -0.0366497 0.0322529 
0.00126086 -0.0556948 -0.0609393 
0.0341687 -0.0350762 -0.0105542 
-0.0102652 -0.0366007 0.0340107 
-0.00965811 -0.0366143 0.0389443 
-0.00446382 -0.0365319 0.0491415 
-0.014435 -0.0504594 0.0317867 
-0.00380746 -0.0365921 0.0617974 
0.0301074 -0.0412757 -0.0374202 
-0.00272508 -0.0365801 0.0647384 
-0.0382645 -0.0572356 0.00842183 
-0.0361807 -0.0571889 0.0103191 
0.0446918 -0.0548398 -0.00234715 
0.00366959 -0.0362272 0.0368592 
0.0412086 -0.0349719 0.0044676 
0.00693069 -0.0361082 0.0324503 
0.0237971 -0.0556668 0.0363201 
0.0351537 -0.0527634 0.0228757 
0.0366096 -0.0351326 0.00954168 
-0.00268911 -0.0561736 -0.00176268 
-0.050565 -0.0375458 0.00405538 
0.0340663 -0.0352238 0.0127254 
0.026985 -0.0354363 0.0149252 
0.00751079 -0.0360029 0.0181353 
0.0400028 -0.0552271 0.0387755 
0.00861716 -0.0360293 0.0273775 
0.0153177 -0.0358812 0.0338059 
0.033355 -0.0352855 0.0194312 
-0.000408623 -0.0364838 0.0597206 
0.0313871 -0.0353885 0.0271133 
0.00452288 -0.0360378 0.0102505 
0.0110337 -0.0358178 0.00426313 
0.00020264 -0.0361597 0.0103518 
0.010805 -0.0357982 8.2582e-05 
0.000993238 -0.0362232 0.0241374 
0.0229254 -0.0553271 -0.0222539 
0.0376099 -0.0548183 -0.0377785 
0.0316636 -0.0351609 -0.00824499 
0.0068441 -0.0361519 0.0390814 
0.0456201 -0.0370736 -0.0398481 
0.00760493 -0.0357398 -0.0237602 
0.0127137 -0.0557449 -0.00115978 
0.017135 -0.0354739 -0.0234938 
0.00985474 -0.0356306 -0.0311641 
-0.0169823 -0.0367545 0.0284168 
0.0126797 -0.0355353 -0.0337326 
0.00442271 -0.049123 -0.0602973 
0.00242987 -0.0356359 -0.0638435 
-0.0208167 -0.0564688 -0.0361369 
-0.0386017 -0.0574305 0.0382429 
0.0103828 -0.0357461 -0.0102064 
-0.00208456 -0.0559061 -0.0420574 
0.0223167 -0.035359 -0.0185772 
0.0249226 -0.0554102 0.000131739 
0.0275383 -0.0351642 -0.0263387 
0.0349008 -0.0391431 0.0434799 
-0.0567628 -0.0376606 -0.00546428 
0.0024758 -0.0359639 -0.0108692 
0.0332208 -0.0377867 0.0188606 
0.00532234 -0.055837 -0.0197264 
0.0105713 -0.0555493 -0.0422949 
-0.0227618 -0.0566633 -0.0136345 
0.0106045 -0.0559461 0.0216736 
-0.0123926 -0.0563136 -0.0230569 
0.0441026 -0.0551631 0.0469851 
-0.0161425 -0.0388398 -0.0346377 
0.00601883 -0.0559707 0.00493293 
-0.0410337 -0.0533862 0.0304554 
-0.0218446 -0.0565819 -0.0225776 
0.00242555 -0.0560552 0.0022937 
-0.0402582 -0.0569904 -0.0400218 
-0.0234854 -0.0567726 0.000683732 
0.0203458 -0.0412594 -0.0338277 
-0.0131577 -0.0565994 0.0194506 
-0.00877946 -0.0564494 0.0150976 
-0.000654435 -0.0562943 0.0268369 
0.0526422 -0.0371065 -0.00285015 
0.0411446 -0.0524004 -0.00845131 
-0.0435315 -0.0545343 -0.0475828 
-0.00869363 -0.0565646 0.0340209 
0.035828 -0.0481132 -0.0180571 
-0.0411093 -0.0572488 -0.00229814 
-0.00719084 -0.0391297 0.0523981 
0.0190074 -0.0556461 0.0113706 
0.0103217 -0.0403862 -0.0435535 
-0.00527002 -0.0564628 0.033105 
-0.05279 -0.0401025 0.00297918 
-0.00251171 -0.0392767 -0.0536712 
-0.0457679 -0.0401355 0.0399772 
0.0238396 -0.0553836 -0.00904034 
-0.0231013 -0.0568068 0.00791489 
-0.0165474 -0.0365929 0.00439856 
0.0216057 -0.0352854 -0.0336256 
0.0199492 -0.0554748 -0.0119302 
0.0239404 -0.0381689 0.0384387 
-0.0259254 -0.0568172 -0.00316379 
-0.026067 -0.0567703 -0.0113412 
-0.028993 -0.0568863 -0.00589571 
-0.0165391 -0.0564338 -0.022449 
-0.00856947 -0.0561518 -0.0318214 
-0.0348806 -0.0394392 -0.0228399 
-0.0102424 -0.0561866 -0.0337766 
0.0119999 -0.0530222 -0.0400374 
-0.0187558 -0.0564298 -0.0330949 
-0.0264263 -0.056686 -0.0265203 
-0.0330818 -0.0569172 -0.0193954 
-0.0332876 -0.0568724 -0.0275323 
-0.029703 -0.0567792 -0.0263263 
-0.010816 -0.056375 -0.00605323 
-0.0283676 -0.056798 -0.0172716 
-0.016764 -0.0564009 -0.0287449 
-0.0309796 -0.0570409 0.00999328 
-0.0220749 -0.0568328 0.0167346 
0.00181041 -0.0560304 -0.00446813 
0.0366657 -0.0527465 0.026984 
-0.0356239 -0.0570564 -0.00847603 
-0.0469284 -0.0574158 -0.00171916 
-0.0103559 -0.0566235 0.035983 
0.00546091 -0.0355973 -0.0563618 
0.00101427 -0.0389266 0.0567749 
-0.013966 -0.0566641 0.0262062 
0.0444492 -0.0524231 0.0101237 
-0.0459832 -0.0376425 0.0403071 
-0.0317484 -0.0570793 0.0127078 
-0.03676 -0.0573199 0.0287609 
-0.0299731 -0.0571446 0.0312177 
-0.0280986 -0.057028 0.0209282 
0.0164156 -0.0533628 0.0346735 
0.00415537 -0.0561826 0.0305944 
-0.0439524 -0.0395407 -0.0474896 
0.0490903 -0.0522002 -0.00477935 
0.0401063 -0.0552077 0.0361265 
-0.0124065 -0.0566673 0.0337685 
0.021691 -0.0356449 0.0245782 
-0.0229637 -0.0394636 0.0348803 
-0.0424896 -0.0529717 0.00748756 
-0.007772 -0.0565605 0.0375238 
0.00651112 -0.0393351 -0.0538174 
-0.0401514 -0.0374003 0.0276746 
0.0401514 -0.0385517 -0.0279339 
-0.0425223 -0.0412515 0.0330149 
-0.00221466 -0.0563789 0.0334075 
0.039434 -0.0349809 -0.00209905 
-0.0368986 -0.0397021 0.0103231 
-0.00223401 -0.0540726 0.0646297 
0.00995433 -0.0355471 -0.0441523 
0.00905288 -0.0355571 -0.0466017 
-0.00252187 -0.05653 0.0563155 
0.0126309 -0.0559651 0.033888 
-0.0411239 -0.0572938 0.00486146 
-0.031596 -0.0372246 0.038048 
-0.0168551 -0.0488606 -0.0351589 
0.0313559 -0.0553006 0.0115502 
-0.0438846 -0.0370402 -0.0470992 
0.0199732 -0.0555428 -0.000886362 
0.0242362 -0.0554991 0.0113245 
0.0298586 -0.0552942 0.00376354 
0.0142667 -0.0556482 -0.00969607 
-0.0380086 -0.0548242 0.0239879 
0.0160318 -0.0558502 0.0307601 
0.0171041 -0.0557628 0.0215366 
0.0296047 -0.0452157 0.0409185 
-0.0247535 -0.0568954 0.0147127 
0.0159947 -0.0383692 0.0347668 
0.0243262 -0.0519131 0.0383533 
-0.0307557 -0.0547065 0.0378107 
0.0321993 -0.0553644 0.0256273 
-0.0391278 -0.0520789 -0.0455028 
0.0206908 -0.0557238 0.031461 
-0.0233104 -0.0569816 0.03508 
0.0317775 -0.0553235 0.017144 
0.00595199 -0.0530898 -0.0564705 
0.0301928 -0.0552347 -0.00429318 
0.0249235 -0.0352318 -0.0272707 
0.000244258 -0.0364484 0.0569767 
0.0362363 -0.0526725 0.0131473 
0.0443837 -0.0548735 0.00167583 
-0.00758589 -0.0366344 0.0515308 
0.00680392 -0.0355823 -0.0527126 
0.0429731 -0.0467278 -0.00749836 
0.000770212 -0.0357141 -0.0587516 
0.0334624 -0.0350272 -0.0216172 
-0.000372972 -0.0362204 0.0175163 
-0.0209031 -0.0366776 -0.00165075 
0.0188179 -0.0554576 -0.019802 
-0.0325048 -0.0545956 0.0120659 
-0.0326846 -0.0481921 0.0121057 
-0.0176753 -0.0366837 0.0139101 
0.0135445 -0.0356233 -0.0156741 
0.0283857 -0.0552156 -0.0155236 
-0.0531198 -0.057572 -0.00454496 
0.00584022 -0.0561757 0.0370971 
0.0486771 -0.0347236 -0.00175959 
0.0115789 -0.0380286 -0.0399442 
-0.00367582 -0.0565884 0.0605059 
0.0404246 -0.0548023 -0.0276388 
-0.0337931 -0.0569788 -0.0126896 
-0.0130546 -0.045757 0.0359241 
0.0352093 -0.0350769 -0.00573882 
-0.0603147 -0.0552964 -0.000785997 
-0.0480736 -0.0374148 -0.00575557 
-0.0147507 -0.0392142 0.0318566 
-0.00850046 -0.0385873 -0.0407498 
0.0341894 -0.0350466 -0.0152239 
0.0346126 -0.0375308 -0.0160041 
0.000571953 -0.0358751 -0.0337579 
0.0232368 -0.0527391 -0.0348445 
-0.0435124 -0.0550529 0.0359099 
0.0344594 -0.0498972 -0.0389864 
0.0191303 -0.0528637 -0.0333326 
0.0170612 -0.0554332 -0.0316727 
0.00835266 -0.0386217 0.0408788 
0.0344688 -0.0549544 -0.0300774 
0.0171308 -0.0556552 0.00436036 
-0.0117487 -0.0537333 -0.032895 
-0.0140752 -0.0364071 -0.0143303 
-0.00731815 -0.0561986 -0.0186373 
-0.0354261 -0.0469445 -0.0249406 
-0.0314357 -0.054399 -0.0147165 
0.0381777 -0.0527296 0.0310923 
0.0519494 -0.045083 0.00733318 
-0.0330019 -0.0478968 0.0386093 
-0.0519682 -0.0550225 -0.00715743 
-0.0114152 -0.0469104 0.0402819 
0.00318714 -0.0468109 0.052503 
-0.0439077 -0.0375563 0.0358112 
0.0148484 -0.0467411 -0.031782 
0.0384795 -0.0552259 0.0317061 
0.0265219 -0.0551729 -0.0308072 
0.0327574 -0.0554307 0.0388107 
0.0317666 -0.051413 0.0417977 
0.0358641 -0.044397 0.0254953 
0.0105394 -0.0560392 0.0363629 
-0.00209105 -0.0359088 -0.0403644 
-0.0567855 -0.0377025 0.00118067 
-0.0105003 -0.0364215 0.00413805 
-0.0283093 -0.0370397 0.023146 
0.00668024 -0.0358463 -0.0108018 
-0.00484584 -0.036152 -0.0136847 
-0.0196505 -0.036451 -0.0324422 
-0.00261159 -0.0360726 -0.0163636 
-0.0160495 -0.0365311 -0.00329249 
-0.00934453 -0.0362824 -0.0130305 
-0.0126212 -0.0364214 -0.00546209 
-0.0181158 -0.0365373 -0.0116291 
-0.013693 -0.0364333 -0.00838072 
-0.0119341 -0.0364896 0.00861492 
0.00751843 -0.0358075 -0.0132661 
-0.0155788 -0.0365891 0.00815896 
-0.00196084 -0.0558544 -0.0498052 
-0.00989993 -0.0364676 0.0142506 
0.0288286 -0.0552422 -0.00925378 
-0.00924338 -0.0364294 0.0110729 
0.0176329 -0.0554492 -0.0265114 
-0.00487863 -0.0363461 0.0173906 
0.000762748 -0.0359255 -0.0247834 
0.0208342 -0.0354828 -0.00536561 
0.00104447 -0.0361596 0.0141299 
0.0231217 -0.0354447 -0.0011652 
0.00336179 -0.0361158 0.0175546 
0.0200355 -0.0355661 0.0044216 
0.00785901 -0.0555682 -0.051495 
0.0143056 -0.0357425 0.00693321 
0.01077 -0.035871 0.0116235 
0.0138716 -0.0357914 0.0128319 
0.0158175 -0.0356183 -0.00622231 
-0.0038839 -0.036035 -0.028154 
-0.0105385 -0.0362799 -0.0188214 
-0.0123577 -0.0362375 -0.0338522 
0.037919 -0.0435148 0.0311496 
-0.0291175 -0.0366882 -0.0370321 
-0.0397296 -0.0369755 -0.0387397 
-0.0376703 -0.0369457 -0.0342329 
-0.0297717 -0.0367926 -0.0232013 
-0.000497093 -0.0564885 0.0587874 
-0.0312495 -0.0370424 0.0103016 
-0.035864 -0.0370292 -0.012655 
-0.0252867 -0.0570229 0.0327984 
-0.0423561 -0.0372383 -0.00834136 
-0.00516213 -0.0359873 -0.0416073 
-0.0211224 -0.0568662 0.0264025 
-0.0201154 -0.03894 -0.0364737 
-0.0467068 -0.0374486 0.00583838 
0.021575 -0.0553155 -0.030206 
0.032778 -0.037607 -0.01203 
-0.00624814 -0.0364578 0.029164 
-0.0264174 -0.0369598 0.0188453 
0.0350335 -0.0525244 -0.0160973 
0.0355588 -0.0550045 -0.0170988 
-0.0126054 -0.0366796 0.0361443 
-0.00308861 -0.0365447 0.0574147 
0.0508381 -0.0546568 -0.00401957 
0.0533463 -0.0545992 -0.00195786 
-0.00505049 -0.041293 0.0580334 
0.015036 -0.0558593 0.0277155 
-0.00864439 -0.0366462 0.0486546 
0.045215 -0.0380751 -0.00629746 
0.00379665 -0.0363091 0.0506114 
-0.0188572 -0.0393389 0.0333685 
0.0233415 -0.0355528 0.0172111 
0.0174143 -0.0354316 -0.0290398 
-0.0358949 -0.0572486 0.0212078 
0.00571577 -0.0357581 -0.0293438 
0.00485546 -0.0356872 -0.044632 
0.0417866 -0.0465962 0.0414008 
0.0312412 -0.0553642 0.0212552 
0.0397298 -0.0409053 -0.0409631 
0.00681206 -0.055631 -0.0461302 
0.00409339 -0.0559766 -0.00281808 
0.00335776 -0.0559329 -0.0131759 
-0.018361 -0.0566225 -0.000327557 
-0.016947 -0.0565257 -0.00950031 
-0.011232 -0.0564571 0.0052585 
-0.0134281 -0.0565436 0.00926527 
0.00843675 -0.0557956 -0.0123204 
-0.0601811 -0.0552718 -0.00413379 
-0.00024185 -0.0561237 0.00126326 
0.00707108 -0.0559771 0.0107005 
0.0119551 -0.0558243 0.00818835 
0.0119899 -0.0558683 0.0154168 
0.0363026 -0.0553623 0.043816 
0.0116346 -0.055809 0.00426788 
0.0181716 -0.0556088 0.00159096 
-0.0319909 -0.0569858 -0.00342714 
-0.0224303 -0.0566275 -0.0178854 
-0.0206362 -0.0565187 -0.027283 
-0.0160373 -0.0425882 -0.034661 
0.0319106 -0.044988 0.0147077 
-0.00470378 -0.0560515 -0.0304916 
-0.0349253 -0.0570873 -0.000357831 
0.000123612 -0.0558749 -0.0371 
-0.036595 -0.0397544 0.0201071 
-0.0348438 -0.0571241 0.00592993 
-0.0446901 -0.0574034 0.00638671 
0.00195959 -0.0558616 -0.0309429 
-0.0101224 -0.056585 0.0308445 
-0.0285119 -0.0570663 0.0252183 
-0.0471816 -0.0552053 0.043858 
-0.0248957 -0.0569573 0.0240163 
0.0103071 -0.0557916 -0.00450809 
0.043595 -0.0426305 -0.035163 
-0.0236673 -0.0540337 -0.0384029 
-0.0198535 -0.0568558 0.0304554 
0.00599102 -0.0560993 0.0254873 
-0.00206037 -0.0564634 0.0476909 
-0.0104086 -0.0566507 0.04012 
0.00236417 -0.0562939 0.0404002 
-0.00106318 -0.0563975 0.0415972 
0.00890209 -0.0560602 0.0323415 
0.0591599 -0.0457238 0.00468216 
-0.0413639 -0.0428359 0.041666 
0.0203885 -0.0532627 0.0365095 
0.0262493 -0.0555904 0.0351105 
0.0278794 -0.0555147 0.0302847 
0.0230791 -0.0556135 0.0244996 
0.0266581 -0.0554915 0.0210497 
-0.0474008 -0.0473961 0.0439065 
0.0339162 -0.0552769 0.0193069 
0.0406813 -0.0550311 0.0103168 
0.0361371 -0.0551734 0.0126908 
0.0503359 -0.0547329 0.00594567 
0.00326979 -0.053844 0.0527076 
0.0543845 -0.0546036 0.0034214 
0.0365029 -0.055103 0.0030185 
0.0383693 -0.0549799 -0.00835806 
0.00647371 -0.0557446 -0.0293824 
0.0128785 -0.055523 -0.0361085 
-0.0184363 -0.0543325 0.0332752 
0.033737 -0.055027 -0.021702 
0.0368681 -0.0524482 -0.0200713 
0.0273433 -0.0526144 -0.0363563 
0.0190075 -0.0484906 -0.0333055 
-0.00127404 -0.056026 -0.0191107 
0.0130909 -0.0380117 -0.0358359 
0.0133101 -0.0458209 -0.0358844 
0.0187847 -0.0492394 0.0358463 
0.0279795 -0.0555721 0.0399696 
-0.0276401 -0.0541338 -0.0402389 
-0.0266492 -0.0545819 0.0362989 
-0.0196944 -0.0539336 -0.0365669 
-0.0340028 -0.0399151 -0.0429035 
-0.0359717 -0.0544498 -0.0270414 
-0.0416318 -0.0413895 -0.0413388 
-0.0396487 -0.0546484 -0.0116929 
-0.0359631 -0.0395301 -0.0131115 
-0.0435444 -0.0439809 -0.010303 
-0.0357615 -0.0467146 -0.0131562 
0.03958 -0.0488081 0.0352248 
-0.0605954 -0.0453007 -0.000723848 
-0.045347 -0.0551291 0.0398839 
0.0306554 -0.0550909 -0.0253383 
-0.0132387 -0.0391973 0.0359649 
0.00284887 -0.0388503 0.0528009 
0.00861136 -0.0478365 0.0408215 
0.0390929 -0.0468521 0.0452673 
0.0389526 -0.0418543 0.0452984 
0.000672529 -0.0382062 -0.0606198 
0.0392687 -0.0377191 0.0352938 
-0.0612197 -0.0378143 -0.000868479 
0.0359951 -0.0440824 0.0132007 
0.0358154 -0.0376789 0.0132405 
0.057036 -0.052 -0.00110739 
0.0387478 -0.0458028 -0.0245013 
0.0150176 -0.0356138 -0.0105591 
-0.0273032 -0.036675 -0.0309572 
-0.0103681 -0.0363415 -0.00813747 
-0.00421644 -0.0359178 -0.0485039 
0.0350109 -0.0548904 -0.0379214 
0.0195176 -0.0357766 0.0359445 
0.0299292 -0.0355098 0.0400509 
0.0294496 -0.0354877 0.0343312 
0.0386742 -0.035091 0.0121777 
0.0465576 -0.034845 0.00819684 
-0.00483126 -0.0384349 -0.0486978 
0.0500756 -0.0347164 0.00340117 
-0.0258905 -0.0456498 -0.0392685 
-0.0190571 -0.0566768 0.00527381 
-0.0133903 -0.0563937 -0.014684 
-0.0147825 -0.0565316 0.00121042 
-0.00613558 -0.0562172 -0.0103098 
0.0146081 -0.0557888 0.0144574 
0.0176552 -0.0556679 0.00876218 
-0.0296561 -0.0566928 -0.0400151 
-0.0328087 -0.0568316 -0.0319165 
-0.0304856 -0.0567593 -0.0330685 
-0.0224327 -0.0565339 -0.0329509 
-0.0307717 -0.0568423 -0.020999 
-0.0384011 -0.0571116 -0.0121419 
0.0648063 -0.0455524 0.00260341 
0.00207675 -0.0563816 0.0532121 
0.0645607 -0.0368061 0.00265779 
0.00219173 -0.0563376 0.0466606 
0.0196343 -0.0557793 0.0356147 
0.0386426 -0.0552809 0.0412887 
0.00654008 -0.0356704 -0.0397346 
0.0468401 -0.0548466 0.00844479 
0.0376077 -0.0550368 -0.00265354 
0.004118 -0.0556728 -0.0515692 
0.0147081 -0.0417432 -0.0317509 
0.0314497 -0.0524897 -0.0378681 
0.00815659 -0.0474408 -0.0500164 
-0.0385988 -0.0501578 0.0250105 
-0.0120118 -0.0443623 -0.0328367 
-0.011854 -0.0499849 -0.0328717 
-0.0363926 -0.0394561 -0.0269482 
-0.0331845 -0.045982 -0.0187724 
-0.0488171 -0.0400024 0.00481516 
-0.0448443 -0.0399023 0.00665114 
-0.0405693 -0.0453923 0.0290146 
-0.0270701 -0.0395882 0.0363921 
-0.0206824 -0.0475228 0.0340739 
-0.0208052 -0.0431496 0.0341011 
-0.0145928 -0.0448368 0.0318217 
-0.00910802 -0.0516497 0.0461579 
-0.0087028 -0.0391466 0.0482898 
-0.00996439 -0.041348 0.0446814 
0.00510439 -0.0537677 0.0487336 
-0.000671255 -0.044313 0.0607159 
0.00702933 -0.0405531 0.0438477 
0.0259241 -0.0478116 -0.0358537 
-0.0281984 -0.036643 -0.0401612 
-0.0345859 -0.0572754 0.0314285 
0.0481348 -0.0373048 0.00870506 
0.03586 -0.0410754 -0.0185101 
-0.0143888 -0.0365231 0.00291575 
-0.00114537 -0.0360516 -0.0131311 
0.014736 -0.0356977 0.00166418 
0.0154616 -0.0356443 -0.00364496 
-0.00280651 -0.0362661 0.0138849 
0.00397361 -0.0360686 0.0127253 
-0.0210224 -0.036536 -0.024954 
-0.0442755 -0.0372814 -0.0100615 
-0.0647787 -0.037904 -0.00251322 
-0.0353778 -0.0370908 -0.000540416 
-0.0189944 -0.036842 0.0334087 
0.0308558 -0.035231 -0.000616191 
-0.00793792 -0.0563124 -0.00312608 
0.00239337 -0.0357285 -0.0491028 
0.00314064 -0.0356743 -0.0544507 
-0.00155871 -0.0561058 -0.00755519 
-0.00991141 -0.0563962 0.00143768 
0.000320626 -0.0560287 -0.0114818 
-0.00434178 -0.0562687 0.00607265 
-0.0202377 -0.0567493 0.0115961 
-0.0194924 -0.0567537 0.0156757 
0.00514859 -0.0559659 0.000230742 
0.00167564 -0.0561251 0.0101545 
-0.0526946 -0.0576051 0.00268755 
-0.0492153 -0.0575174 0.00429545 
-0.0188986 -0.0568476 0.0334557 
-0.00968121 -0.0566556 0.0441882 
0.0019459 -0.0562668 0.0341572 
0.00435788 -0.0563006 0.0504871 
0.0650518 -0.0542987 0.00254903 
0.0436288 -0.0549195 0.00566998 
0.0121305 -0.0555205 -0.0398885 
0.0478757 -0.051991 -0.0439154 
0.00270882 -0.0453145 -0.0646385 
0.00250713 -0.03813 -0.0645939 
0.0135118 -0.0530053 -0.0359291 
-0.0399796 -0.0394405 -0.0456536 
-0.0355422 -0.0545237 -0.0132047 
-0.0329258 -0.039602 0.0121591 
-0.0288077 -0.0508958 0.0370781 
-0.0300711 -0.0424931 0.0375085 
0.0331989 -0.0526007 -0.0121233 
-0.0128178 -0.0541909 0.0358717 
0.0120219 -0.0384693 0.0329308 
0.0124428 -0.0534629 0.0328376 
0.0440063 -0.0448528 0.0475739 
0.0336418 -0.0527803 0.0187674 
0.00297991 -0.0557473 -0.0447186 
0.0416019 -0.0481172 -0.0416224 
-0.00305193 -0.0527466 -0.0517677 
-0.0090751 -0.0467422 -0.0390617 
-0.00559942 -0.0503606 0.0557945 
0.0410011 -0.0393972 0.0113391 
0.00408058 -0.0556105 -0.0617616 
-0.0378704 -0.0437636 -0.0447628 
-0.0645682 -0.0454008 -0.00255983 
-0.0354277 -0.0486187 0.0180647 
0.0122411 -0.0462785 0.0328822 
0.0329972 -0.0454162 -0.0120786 
